<svg width="186" height="38" viewBox="0 0 186 38" fill="none" xmlns="http://www.w3.org/2000/svg">
<g filter="url(#filter0_dd_13001_399)">
<rect x="3.1" y="2.1" width="31.8" height="31.8" rx="7.9" fill="white"/>
<rect x="3.1" y="2.1" width="31.8" height="31.8" rx="7.9" fill="url(#paint0_linear_13001_399)"/>
<rect x="3.1" y="2.1" width="31.8" height="31.8" rx="7.9" stroke="#D0D5DD" stroke-width="0.2"/>
<path d="M18.3546 13.1828C22.7105 11.4504 27.4742 12.8185 29.6373 14.9133C30.106 15.3671 30.5041 15.8275 30.845 16.2852C31.0394 15.2107 31.0552 14.1405 30.8681 13.1055C30.1847 9.32649 26.6195 7.18561 23.4233 8.29149C20.2415 9.3924 19.0005 11.5321 19.0005 11.5321C19.0005 11.5321 17.7595 9.3924 14.5777 8.29149C11.3812 7.18561 7.81603 9.32672 7.1328 13.1055C6.62842 15.8944 7.58356 18.9392 9.61033 21.6298C10.0372 21.7732 10.4847 21.8809 10.9586 21.9431C13.7978 22.3163 14.8184 21.557 16.0178 21.0486C16.8142 20.7113 17.4134 21.0942 17.3843 21.3626C17.3392 21.7786 15.7693 22.4895 16.106 22.6388C17.4351 23.2285 19.0718 23.2334 20.3053 22.18C21.838 20.8712 22.4114 21.7659 22.4114 21.7659C22.4114 21.7659 21.6502 23.7076 19.3581 24.6717C17.4457 25.4761 15.4419 25.6743 13.6107 25.4683C15.19 26.5846 17.0035 27.5204 19.0005 28.1883C24.7099 26.2784 28.9276 22.1871 30.4145 17.9096C29.4072 16.9157 28.1716 16.2996 26.6988 16.0763C23.8674 15.6471 22.8322 16.3863 21.6228 16.8708C20.8198 17.1926 20.2285 16.7978 20.263 16.5299C20.3161 16.1148 21.8999 15.4351 21.5661 15.279C20.249 14.6633 18.6125 14.626 17.3585 15.6549C15.8003 16.9332 15.2446 16.0274 15.2446 16.0274C15.2446 16.0274 16.0438 14.1015 18.3546 13.1828ZM17.2709 18.5052H18.3709V17.4052H19.6296V18.5052H20.7296V19.7639H19.6296V20.8639H18.3709V19.7639H17.2709V18.5052Z" fill="url(#paint1_linear_13001_399)"/>
<path d="M17.2709 18.5052H18.3709V17.4052H19.6296V18.5052H20.7295V19.7639H19.6378C21.2597 20.5834 24.2383 21.8027 27.8177 22.3451C28.9956 20.9517 29.8813 19.4428 30.4143 17.9096C29.4069 16.9157 28.1713 16.2996 26.6986 16.0763C23.8672 15.647 22.8319 16.3863 21.6226 16.8708C20.8196 17.1926 20.2282 16.7978 20.2627 16.5299C20.3159 16.1148 21.8997 15.4351 21.5659 15.279C20.2488 14.6633 18.6123 14.626 17.3583 15.6548C15.8 16.9332 15.2443 16.0274 15.2443 16.0274C15.2443 16.0274 16.0438 14.1013 18.3543 13.1823C22.7102 11.4499 27.4739 12.818 29.637 14.9128C30.1057 15.3666 30.5038 15.8271 30.8447 16.2847C31.0392 15.2102 31.055 14.14 30.8679 13.105C30.1844 9.326 26.6192 7.18512 23.423 8.291C20.2412 9.39191 19.0002 11.5316 19.0002 11.5316C19.0002 11.5316 17.7592 9.39191 14.5774 8.291C12.7519 7.65927 10.8067 8.0883 9.34619 9.27521C10.0323 10.7442 10.836 12.1168 13.1254 14.8773C14.9868 17.1222 17.2709 18.5052 17.2709 18.5052Z" fill="url(#paint2_linear_13001_399)"/>
<path opacity="0.31" d="M27.277 9.64954C24.2712 8.13944 21.169 10.4892 20.1851 11.7299C21.882 11.3725 23.3668 11.1892 25.2457 11.5839C28.0252 12.1679 29.0654 13.1715 30.3064 14.6542C30.0871 11.9069 28.3519 10.1896 27.277 9.64954Z" fill="url(#paint3_linear_13001_399)"/>
</g>
<path d="M46.728 28V10.12H53.4C54.616 10.12 55.688 10.344 56.616 10.792C57.56 11.224 58.296 11.864 58.824 12.712C59.352 13.544 59.616 14.56 59.616 15.76C59.616 16.944 59.344 17.96 58.8 18.808C58.272 19.64 57.544 20.28 56.616 20.728C55.688 21.176 54.616 21.4 53.4 21.4H49.992V28H46.728ZM49.992 18.52H53.448C54.04 18.52 54.552 18.408 54.984 18.184C55.416 17.944 55.752 17.616 55.992 17.2C56.232 16.784 56.352 16.304 56.352 15.76C56.352 15.2 56.232 14.72 55.992 14.32C55.752 13.904 55.416 13.584 54.984 13.36C54.552 13.12 54.04 13 53.448 13H49.992V18.52ZM65.2131 28.288C64.3011 28.288 63.5091 28.136 62.8371 27.832C62.1651 27.528 61.6451 27.096 61.2771 26.536C60.9091 25.96 60.7251 25.296 60.7251 24.544C60.7251 23.824 60.8851 23.184 61.2051 22.624C61.5251 22.048 62.0211 21.568 62.6931 21.184C63.3651 20.8 64.2131 20.528 65.2371 20.368L69.5091 19.672V22.072L65.8371 22.696C65.2131 22.808 64.7491 23.008 64.4451 23.296C64.1411 23.584 63.9891 23.96 63.9891 24.424C63.9891 24.872 64.1571 25.232 64.4931 25.504C64.8451 25.76 65.2771 25.888 65.7891 25.888C66.4451 25.888 67.0211 25.752 67.5171 25.48C68.0291 25.192 68.4211 24.8 68.6931 24.304C68.9811 23.808 69.1251 23.264 69.1251 22.672V19.312C69.1251 18.752 68.9011 18.288 68.4531 17.92C68.0211 17.536 67.4451 17.344 66.7251 17.344C66.0531 17.344 65.4531 17.528 64.9251 17.896C64.4131 18.248 64.0371 18.72 63.7971 19.312L61.2291 18.064C61.4851 17.376 61.8851 16.784 62.4291 16.288C62.9891 15.776 63.6451 15.376 64.3971 15.088C65.1491 14.8 65.9651 14.656 66.8451 14.656C67.9171 14.656 68.8611 14.856 69.6771 15.256C70.4931 15.64 71.1251 16.184 71.5731 16.888C72.0371 17.576 72.2691 18.384 72.2691 19.312V28H69.2931V25.768L69.9651 25.72C69.6291 26.28 69.2291 26.752 68.7651 27.136C68.3011 27.504 67.7731 27.792 67.1811 28C66.5891 28.192 65.9331 28.288 65.2131 28.288ZM79.1349 28.288C78.2229 28.288 77.4309 28.136 76.7589 27.832C76.0869 27.528 75.5669 27.096 75.1989 26.536C74.8309 25.96 74.6469 25.296 74.6469 24.544C74.6469 23.824 74.8069 23.184 75.1269 22.624C75.4469 22.048 75.9429 21.568 76.6149 21.184C77.2869 20.8 78.1349 20.528 79.1589 20.368L83.4309 19.672V22.072L79.7589 22.696C79.1349 22.808 78.6709 23.008 78.3669 23.296C78.0629 23.584 77.9109 23.96 77.9109 24.424C77.9109 24.872 78.0789 25.232 78.4149 25.504C78.7669 25.76 79.1989 25.888 79.7109 25.888C80.3669 25.888 80.9429 25.752 81.4389 25.48C81.9509 25.192 82.3429 24.8 82.6149 24.304C82.9029 23.808 83.0469 23.264 83.0469 22.672V19.312C83.0469 18.752 82.8229 18.288 82.3749 17.92C81.9429 17.536 81.3669 17.344 80.6469 17.344C79.9749 17.344 79.3749 17.528 78.8469 17.896C78.3349 18.248 77.9589 18.72 77.7189 19.312L75.1509 18.064C75.4069 17.376 75.8069 16.784 76.3509 16.288C76.9109 15.776 77.5669 15.376 78.3189 15.088C79.0709 14.8 79.8869 14.656 80.7669 14.656C81.8389 14.656 82.7829 14.856 83.5989 15.256C84.4149 15.64 85.0469 16.184 85.4949 16.888C85.9589 17.576 86.1909 18.384 86.1909 19.312V28H83.2149V25.768L83.8869 25.72C83.5509 26.28 83.1509 26.752 82.6869 27.136C82.2229 27.504 81.6949 27.792 81.1029 28C80.5109 28.192 79.8549 28.288 79.1349 28.288ZM89.0968 28V14.944H92.0488V17.968L91.7128 17.464C91.9528 16.52 92.4328 15.816 93.1528 15.352C93.8728 14.888 94.7208 14.656 95.6968 14.656C96.7688 14.656 97.7128 14.936 98.5288 15.496C99.3448 16.056 99.8728 16.792 100.113 17.704L99.2248 17.776C99.6248 16.736 100.225 15.96 101.025 15.448C101.825 14.92 102.745 14.656 103.785 14.656C104.713 14.656 105.537 14.864 106.257 15.28C106.993 15.696 107.569 16.28 107.985 17.032C108.401 17.768 108.609 18.624 108.609 19.6V28H105.465V20.344C105.465 19.768 105.361 19.272 105.153 18.856C104.945 18.44 104.657 18.12 104.289 17.896C103.921 17.656 103.473 17.536 102.945 17.536C102.449 17.536 102.009 17.656 101.625 17.896C101.241 18.12 100.945 18.44 100.737 18.856C100.529 19.272 100.425 19.768 100.425 20.344V28H97.2808V20.344C97.2808 19.768 97.1768 19.272 96.9688 18.856C96.7608 18.44 96.4648 18.12 96.0808 17.896C95.7128 17.656 95.2728 17.536 94.7608 17.536C94.2648 17.536 93.8248 17.656 93.4408 17.896C93.0568 18.12 92.7608 18.44 92.5528 18.856C92.3448 19.272 92.2408 19.768 92.2408 20.344V28H89.0968ZM112.618 33.28C112.266 33.28 111.922 33.248 111.586 33.184C111.25 33.136 110.946 33.04 110.674 32.896V30.28C110.882 30.328 111.13 30.376 111.418 30.424C111.722 30.472 112.002 30.496 112.258 30.496C112.978 30.496 113.498 30.328 113.818 29.992C114.154 29.672 114.45 29.24 114.706 28.696L115.57 26.68L115.522 29.32L109.834 14.944H113.218L117.202 25.552H116.002L119.962 14.944H123.37L117.682 29.32C117.346 30.152 116.938 30.864 116.458 31.456C115.978 32.048 115.418 32.496 114.778 32.8C114.154 33.12 113.434 33.28 112.618 33.28ZM125.361 28V10.12H132.033C133.249 10.12 134.321 10.344 135.249 10.792C136.193 11.224 136.929 11.864 137.457 12.712C137.985 13.544 138.249 14.56 138.249 15.76C138.249 16.944 137.977 17.96 137.433 18.808C136.905 19.64 136.177 20.28 135.249 20.728C134.321 21.176 133.249 21.4 132.033 21.4H128.625V28H125.361ZM128.625 18.52H132.081C132.673 18.52 133.185 18.408 133.617 18.184C134.049 17.944 134.385 17.616 134.625 17.2C134.865 16.784 134.985 16.304 134.985 15.76C134.985 15.2 134.865 14.72 134.625 14.32C134.385 13.904 134.049 13.584 133.617 13.36C133.185 13.12 132.673 13 132.081 13H128.625V18.52ZM145.315 28.288C144.307 28.288 143.427 28.064 142.675 27.616C141.939 27.168 141.371 26.544 140.971 25.744C140.587 24.944 140.395 24.008 140.395 22.936V14.944H143.539V22.672C143.539 23.216 143.643 23.696 143.851 24.112C144.075 24.512 144.387 24.832 144.787 25.072C145.203 25.296 145.667 25.408 146.179 25.408C146.691 25.408 147.147 25.296 147.547 25.072C147.947 24.832 148.259 24.504 148.483 24.088C148.707 23.672 148.819 23.176 148.819 22.6V14.944H151.963V28H148.987V25.432L149.251 25.888C148.947 26.688 148.443 27.288 147.739 27.688C147.051 28.088 146.243 28.288 145.315 28.288ZM154.886 28V9.832H158.03V28H154.886ZM165.901 28.288C164.509 28.288 163.293 27.96 162.253 27.304C161.229 26.632 160.525 25.728 160.141 24.592L162.493 23.464C162.829 24.2 163.293 24.776 163.885 25.192C164.493 25.608 165.165 25.816 165.901 25.816C166.477 25.816 166.933 25.688 167.269 25.432C167.605 25.176 167.773 24.84 167.773 24.424C167.773 24.168 167.701 23.96 167.557 23.8C167.429 23.624 167.245 23.48 167.005 23.368C166.781 23.24 166.533 23.136 166.261 23.056L164.125 22.456C163.021 22.136 162.181 21.648 161.605 20.992C161.045 20.336 160.765 19.56 160.765 18.664C160.765 17.864 160.965 17.168 161.365 16.576C161.781 15.968 162.349 15.496 163.069 15.16C163.805 14.824 164.645 14.656 165.589 14.656C166.821 14.656 167.909 14.952 168.853 15.544C169.797 16.136 170.469 16.968 170.869 18.04L168.469 19.168C168.245 18.576 167.869 18.104 167.341 17.752C166.813 17.4 166.221 17.224 165.565 17.224C165.037 17.224 164.621 17.344 164.317 17.584C164.013 17.824 163.861 18.136 163.861 18.52C163.861 18.76 163.925 18.968 164.053 19.144C164.181 19.32 164.357 19.464 164.581 19.576C164.821 19.688 165.093 19.792 165.397 19.888L167.485 20.512C168.557 20.832 169.381 21.312 169.957 21.952C170.549 22.592 170.845 23.376 170.845 24.304C170.845 25.088 170.637 25.784 170.221 26.392C169.805 26.984 169.229 27.448 168.493 27.784C167.757 28.12 166.893 28.288 165.901 28.288ZM179.453 28.288C178.109 28.288 176.933 27.984 175.925 27.376C174.917 26.768 174.133 25.944 173.573 24.904C173.013 23.864 172.733 22.712 172.733 21.448C172.733 20.136 173.013 18.976 173.573 17.968C174.149 16.944 174.925 16.136 175.901 15.544C176.893 14.952 177.997 14.656 179.213 14.656C180.237 14.656 181.133 14.824 181.901 15.16C182.685 15.496 183.349 15.96 183.893 16.552C184.437 17.144 184.853 17.824 185.141 18.592C185.429 19.344 185.573 20.16 185.573 21.04C185.573 21.264 185.557 21.496 185.525 21.736C185.509 21.976 185.469 22.184 185.405 22.36H175.325V19.96H183.629L182.141 21.088C182.285 20.352 182.245 19.696 182.021 19.12C181.813 18.544 181.461 18.088 180.965 17.752C180.485 17.416 179.901 17.248 179.213 17.248C178.557 17.248 177.973 17.416 177.461 17.752C176.949 18.072 176.557 18.552 176.285 19.192C176.029 19.816 175.933 20.576 175.997 21.472C175.933 22.272 176.037 22.984 176.309 23.608C176.597 24.216 177.013 24.688 177.557 25.024C178.117 25.36 178.757 25.528 179.477 25.528C180.197 25.528 180.805 25.376 181.301 25.072C181.813 24.768 182.213 24.36 182.501 23.848L185.045 25.096C184.789 25.72 184.389 26.272 183.845 26.752C183.301 27.232 182.653 27.608 181.901 27.88C181.165 28.152 180.349 28.288 179.453 28.288Z" fill="white"/>
<defs>
<filter id="filter0_dd_13001_399" x="0" y="0" width="38" height="38" filterUnits="userSpaceOnUse" color-interpolation-filters="sRGB">
<feFlood flood-opacity="0" result="BackgroundImageFix"/>
<feColorMatrix in="SourceAlpha" type="matrix" values="0 0 0 0 0 0 0 0 0 0 0 0 0 0 0 0 0 0 127 0" result="hardAlpha"/>
<feOffset dy="1"/>
<feGaussianBlur stdDeviation="1"/>
<feColorMatrix type="matrix" values="0 0 0 0 0.0627451 0 0 0 0 0.0941176 0 0 0 0 0.156863 0 0 0 0.06 0"/>
<feBlend mode="normal" in2="BackgroundImageFix" result="effect1_dropShadow_13001_399"/>
<feColorMatrix in="SourceAlpha" type="matrix" values="0 0 0 0 0 0 0 0 0 0 0 0 0 0 0 0 0 0 127 0" result="hardAlpha"/>
<feOffset dy="1"/>
<feGaussianBlur stdDeviation="1.5"/>
<feColorMatrix type="matrix" values="0 0 0 0 0.0627451 0 0 0 0 0.0941176 0 0 0 0 0.156863 0 0 0 0.1 0"/>
<feBlend mode="normal" in2="effect1_dropShadow_13001_399" result="effect2_dropShadow_13001_399"/>
<feBlend mode="normal" in="SourceGraphic" in2="effect2_dropShadow_13001_399" result="shape"/>
</filter>
<linearGradient id="paint0_linear_13001_399" x1="19" y1="2" x2="19" y2="34" gradientUnits="userSpaceOnUse">
<stop stop-color="white"/>
<stop offset="1" stop-color="#D0D5DD"/>
</linearGradient>
<linearGradient id="paint1_linear_13001_399" x1="10.1989" y1="24.2137" x2="27.8347" y2="6.57791" gradientUnits="userSpaceOnUse">
<stop stop-color="#0076C1"/>
<stop offset="0.0737" stop-color="#0B82C6"/>
<stop offset="0.2766" stop-color="#269ED3"/>
<stop offset="0.4546" stop-color="#36AFDA"/>
<stop offset="0.587" stop-color="#3CB5DD"/>
</linearGradient>
<linearGradient id="paint2_linear_13001_399" x1="10.1388" y1="24.2537" x2="27.8274" y2="6.56509" gradientUnits="userSpaceOnUse">
<stop stop-color="#00A482"/>
<stop offset="1" stop-color="#79DD83"/>
</linearGradient>
<linearGradient id="paint3_linear_13001_399" x1="24.8608" y1="13.5073" x2="28.5288" y2="10.1132" gradientUnits="userSpaceOnUse">
<stop stop-color="#00A482"/>
<stop offset="1" stop-color="#79DD83"/>
</linearGradient>
</defs>
</svg>
